<svg width="74" height="74" viewBox="0 0 74 74" fill="none" xmlns="http://www.w3.org/2000/svg">
<path d="M37 74C57.4345 74 74 57.4345 74 37C74 16.5655 57.4345 0 37 0C16.5655 0 0 16.5655 0 37C0 57.4345 16.5655 74 37 74Z" fill="url(#paint0_linear_3_148)"/>
<path d="M13.7798 38.8099C18.1051 36.4274 22.9333 34.439 27.4445 32.4404C35.2055 29.1668 42.9974 25.95 50.868 22.9551C52.3993 22.4448 55.1507 21.9458 55.4205 24.2151C55.2728 27.4273 54.6651 30.6207 54.2482 33.8141C53.1902 40.8367 51.9673 47.8353 50.7748 54.8348C50.364 57.1662 47.4433 58.3732 45.5745 56.8812C41.0833 53.8475 36.5576 50.8434 32.1238 47.7394C30.6713 46.2636 32.0181 44.1442 33.3153 43.0904C37.0144 39.4449 40.9373 36.3477 44.4431 32.5139C45.3887 30.2302 42.5946 32.1549 41.673 32.7445C36.6089 36.2343 31.6688 39.937 26.3297 43.004C23.6025 44.5053 20.4239 43.2223 17.6979 42.3846C15.2537 41.3726 11.6721 40.3531 13.7796 38.8101L13.7798 38.8099Z" fill="white"/>
<defs>
<linearGradient id="paint0_linear_3_148" x1="27.7543" y1="3.0858" x2="9.25431" y2="46.25" gradientUnits="userSpaceOnUse">
<stop stop-color="#37AEE2"/>
<stop offset="1" stop-color="#1E96C8"/>
</linearGradient>
</defs>
</svg>
