<svg width="20" height="22" viewBox="0 0 20 22" fill="none" xmlns="http://www.w3.org/2000/svg">
<path d="M22.0734 13.7552C20.6062 13.7552 19.1625 13.5255 17.7938 13.0755C17.1234 12.8458 16.2984 13.0567 15.8906 13.4786L13.1906 15.5177C10.0594 13.8489 8.13281 11.9177 6.4875 8.81453L8.46563 6.18484C8.98125 5.6739 9.16406 4.9239 8.94375 4.22078C8.48906 2.84734 8.25937 1.40359 8.25937 -0.0635962C8.25937 -1.12766 7.39688 -1.99016 6.33281 -1.99016H1.92656C0.8625 -1.99953 0 -1.13703 0 -0.0729713C0 12.1005 9.90469 22.0005 22.0734 22.0005C23.1375 22.0005 24 21.138 24 20.0739V15.677C24 14.6177 23.1375 13.7552 22.0734 13.7552Z" fill="#597FAE"/>
</svg>
