<svg width="164" height="36" viewBox="0 0 164 36" fill="none" xmlns="http://www.w3.org/2000/svg">
<path d="M60.5214 13.9196V1.7627H64.7184C66.5998 1.7627 68.0471 2.3416 69.0602 3.35467C70.0732 4.36775 70.6521 5.81501 70.6521 7.84116C70.6521 9.72259 70.218 11.3146 69.2049 12.3276C68.1918 13.4854 66.7446 13.9196 64.8631 13.9196H60.5214ZM61.5344 13.0513H64.7184C66.1657 13.0513 67.3235 12.6171 68.1918 11.7487C69.0602 10.8804 69.4943 9.57786 69.4943 7.84116C69.4943 6.24918 69.0602 4.94665 68.3365 4.0783C67.6129 3.20995 66.3104 2.77577 64.7184 2.77577H61.5344V13.0513Z" fill="black"/>
<path d="M81.6512 9.28843V9.57788H73.2571C73.4019 10.7357 73.6913 11.604 74.4149 12.1829C75.1386 12.7618 76.0069 13.196 77.1647 13.196C78.612 13.196 79.7698 12.7618 80.6381 11.7488L81.3618 12.3277C80.4934 13.4855 79.0462 14.2091 77.1647 14.2091C75.7175 14.2091 74.5597 13.7749 73.6913 12.9066C72.823 12.0382 72.3888 10.8804 72.3888 9.43316C72.3888 7.98591 72.823 6.82811 73.6913 5.95975C74.5597 5.0914 75.7175 4.65723 77.02 4.65723C78.4673 4.65723 79.6251 5.0914 80.4934 5.95975C81.217 6.68338 81.6512 7.84118 81.6512 9.28843ZM77.02 5.38085C76.0069 5.38085 75.1386 5.6703 74.5597 6.2492C73.836 6.8281 73.4019 7.69646 73.4019 8.70953H80.7829C80.7829 7.69646 80.3487 6.8281 79.6251 6.2492C78.9014 5.6703 78.0331 5.38085 77.02 5.38085Z" fill="black"/>
<path d="M87.0061 14.0648C85.5589 14.0648 84.2564 13.7753 83.2433 13.1964L83.6775 12.3281C84.6905 12.907 85.8483 13.1964 87.1509 13.1964C88.8876 13.1964 89.7559 12.6175 89.7559 11.4597C89.7559 11.0255 89.4665 10.5913 89.0323 10.3019C88.5981 10.0124 87.8745 9.86772 86.8614 9.57827C85.7036 9.28882 84.8353 8.99937 84.2564 8.5652C83.6775 8.27575 83.388 7.69684 83.388 6.97322C83.388 6.24959 83.6775 5.52597 84.4011 5.09179C84.98 4.65761 85.8483 4.36816 86.8614 4.36816C87.8745 4.36816 89.0323 4.65761 90.1901 5.09179L89.9007 5.96014C89.0323 5.52597 88.0192 5.23652 86.8614 5.23652C86.1378 5.23652 85.5589 5.38124 85.1247 5.67069C84.6905 5.96014 84.4011 6.24959 84.4011 6.82849C84.4011 7.26267 84.5458 7.69684 84.98 7.84157C85.4142 8.13102 86.1378 8.27575 87.1509 8.5652C88.4534 8.85465 89.3217 9.1441 89.9007 9.57827C90.4796 10.0124 90.6243 10.5913 90.6243 11.315C90.6243 13.1964 89.4665 14.0648 87.0061 14.0648Z" fill="black"/>
<path d="M93.9529 2.92089C93.8081 3.06561 93.6634 3.21034 93.374 3.21034C93.0845 3.21034 92.9398 3.06561 92.7951 2.92089C92.6503 2.77616 92.5056 2.63144 92.5056 2.34198C92.5056 2.05253 92.6503 1.90781 92.7951 1.76308C92.9398 1.61836 93.0845 1.47363 93.374 1.47363C93.6634 1.47363 93.8081 1.61836 93.9529 1.76308C94.0976 1.90781 94.2423 2.05253 94.2423 2.34198C94.2423 2.63144 94.0976 2.77616 93.9529 2.92089ZM92.9398 13.92V4.65759H93.9529V13.92H92.9398Z" fill="black"/>
<path d="M100.755 17.2485C99.3079 17.2485 98.1501 16.9591 96.9923 16.3802V15.3671C97.5712 15.6565 98.2948 15.946 98.7289 16.0907C99.3079 16.2354 99.8868 16.3802 100.755 16.3802C103.071 16.3802 104.373 15.3671 104.373 13.1962V12.3279C103.505 13.1962 102.492 13.7751 100.9 13.7751C99.4526 13.7751 98.2948 13.3409 97.4264 12.4726C96.5581 11.6042 96.1239 10.4464 96.1239 9.1439C96.1239 7.69665 96.5581 6.68357 97.4264 5.81522C98.2948 4.94687 99.4526 4.5127 100.755 4.5127C102.202 4.5127 103.36 4.94687 104.229 5.81522V4.65742H105.097V13.0515C105.097 14.4987 104.663 15.5118 103.939 16.2354C103.36 16.8143 102.202 17.2485 100.755 17.2485ZM100.9 12.762C101.479 12.762 102.202 12.6173 102.781 12.3279C103.36 12.0384 103.794 11.6042 104.229 11.0253V6.97302C103.794 6.39412 103.36 5.95995 102.781 5.6705C102.202 5.38105 101.623 5.23632 100.9 5.23632C99.742 5.23632 98.8737 5.52577 98.15 6.2494C97.4264 6.97302 97.137 7.84138 97.137 8.85445C97.137 10.0123 97.4264 10.8806 98.15 11.6042C98.8737 12.4726 99.742 12.762 100.9 12.762Z" fill="black"/>
<path d="M107.847 13.9198V4.65742H108.715V5.81522C109.873 4.94687 111.031 4.5127 112.188 4.5127C113.491 4.5127 114.359 4.80215 114.938 5.52577C115.517 6.2494 115.806 7.26248 115.806 8.70973V13.9198H115.228V8.56501C115.228 7.4072 114.938 6.53885 114.504 6.10467C114.07 5.6705 113.201 5.38105 112.333 5.38105C111.175 5.38105 110.017 5.81522 108.86 6.8283V13.9198H107.847Z" fill="black"/>
<path d="M127.529 9.28863V9.57808H119.135C119.28 10.7359 119.569 11.6042 120.293 12.1831C121.017 12.762 121.885 13.1962 123.043 13.1962C124.49 13.1962 125.648 12.762 126.516 11.749L127.24 12.3279C126.371 13.4857 124.924 14.2093 123.043 14.2093C121.595 14.2093 120.438 13.7751 119.569 12.9068C118.556 11.8937 118.122 10.7359 118.122 9.28863C118.122 7.84138 118.556 6.68357 119.425 5.81522C120.293 4.94687 121.451 4.5127 122.753 4.5127C124.201 4.5127 125.358 4.94687 126.227 5.81522C127.095 6.68357 127.529 7.84138 127.529 9.28863ZM122.753 5.38105C121.74 5.38105 120.872 5.6705 120.293 6.2494C119.569 6.8283 119.135 7.69665 119.135 8.70973H126.516C126.516 7.69665 126.082 6.8283 125.358 6.2494C124.779 5.6705 123.911 5.38105 122.753 5.38105Z" fill="black"/>
<path d="M133.753 14.0645C132.305 14.0645 131.147 13.6304 130.279 12.762C129.411 11.8937 128.977 10.7359 128.977 9.2886C128.977 7.84135 129.411 6.68355 130.279 5.81519C131.147 4.94684 132.305 4.51267 133.608 4.51267C135.055 4.51267 136.213 4.94684 137.081 5.81519V0.894531H137.95V13.9198H137.081V12.6173C136.213 13.6304 135.2 14.0645 133.753 14.0645ZM133.753 13.1962C134.331 13.1962 135.055 13.0515 135.634 12.762C136.213 12.4726 136.647 12.0384 137.081 11.4595V6.973C136.647 6.3941 136.213 5.95992 135.634 5.67047C135.055 5.38102 134.476 5.23629 133.753 5.23629C132.595 5.23629 131.726 5.52574 131.003 6.24937C130.279 6.973 129.99 7.84135 129.99 8.99915C129.99 10.157 130.279 11.17 131.003 11.8937C131.726 12.762 132.595 13.1962 133.753 13.1962Z" fill="black"/>
<path d="M149.093 14.0645C147.646 14.0645 146.488 13.6304 145.62 12.6173V13.9198H144.752V0.894531H145.62V5.81519C146.488 4.94684 147.646 4.51267 149.093 4.51267C150.396 4.51267 151.554 4.94684 152.422 5.81519C153.29 6.68355 153.725 7.84135 153.725 9.2886C153.725 10.7359 153.29 11.8937 152.422 12.762C151.554 13.6304 150.541 14.0645 149.093 14.0645ZM149.093 13.1962C150.251 13.1962 151.12 12.9067 151.843 12.1831C152.567 11.4595 152.856 10.4464 152.856 9.2886C152.856 8.1308 152.567 7.11772 151.843 6.53882C151.12 5.95992 150.251 5.52574 149.093 5.52574C148.514 5.52574 147.791 5.67047 147.212 5.95992C146.633 6.24937 146.054 6.68355 145.765 7.26245V11.7489C146.199 12.3278 146.633 12.762 147.212 13.0515C147.791 13.3409 148.37 13.1962 149.093 13.1962Z" fill="black"/>
<path d="M162.842 4.65723H163.855L159.803 14.3538C159.514 14.9327 159.224 15.3669 158.935 15.8011C158.645 16.2352 158.356 16.5247 158.066 16.6694C157.777 16.8141 157.487 16.9589 157.198 17.1036C156.909 17.1036 156.619 17.2483 156.185 17.2483C155.751 17.2483 155.317 17.2483 154.882 17.1036V16.2352C155.317 16.38 155.895 16.5247 156.185 16.5247C156.764 16.5247 157.343 16.38 157.632 16.0905C158.066 15.8011 158.356 15.2222 158.645 14.4985L154.303 4.94668H155.317L159.224 13.4855L162.842 4.65723Z" fill="black"/>
<path d="M6.53877 23.3271V34.0368H11.4594V34.9052H0.749756V34.0368H5.81515V23.3271H6.53877Z" fill="#5980AE"/>
<path d="M21.8796 26.6558L23.3269 23.3271H24.0505L19.1298 34.7605H18.2615L13.3408 23.3271H14.2092L15.6564 26.6558H21.8796ZM21.4454 27.5242H16.0906L18.8404 33.7474L21.4454 27.5242Z" fill="#5980AE"/>
<path d="M33.3129 34.7605H29.8395C28.6817 34.7605 27.9581 34.6158 27.3792 34.1816C26.945 33.7474 26.6556 33.3132 26.6556 32.8791C26.6556 32.0107 27.2345 31.2871 28.537 30.8529L26.945 28.2478C26.6556 27.8137 26.5109 27.6689 26.5109 27.6689C26.3661 27.5242 26.0767 27.3795 25.7872 27.3795V27.09H27.6687L30.129 30.5634C30.2737 30.5634 30.4184 30.5634 30.4184 30.5634H30.7079V28.8267C30.7079 28.2478 30.7079 27.8137 30.5632 27.6689C30.4184 27.3795 30.129 27.2348 29.5501 27.2348V26.9453H33.3129V27.2348C32.734 27.2348 32.2999 27.3795 32.1551 27.8137C32.1551 27.9584 32.1551 28.2478 32.1551 28.8267V32.8791C32.1551 33.458 32.1551 33.8921 32.2999 34.0369C32.4446 34.3263 32.734 34.471 33.3129 34.471V34.7605ZM30.7079 34.1816V31.1423C30.5632 31.1423 30.5632 31.1423 30.5632 31.1423C29.9843 31.1423 29.5501 31.2871 29.1159 31.5765C28.6817 31.866 28.3923 32.3002 28.3923 32.8791C28.3923 33.3132 28.537 33.7474 28.9712 34.0369C29.2606 34.3263 29.6948 34.3263 30.129 34.3263C30.2737 34.1816 30.5632 34.1816 30.7079 34.1816Z" fill="#5980AE"/>
<path d="M43.7332 26.6558L45.1804 23.3271H46.0488L41.1281 34.7605H40.2598L35.3391 23.3271H36.2075L37.6547 26.6558H43.7332ZM43.4437 27.5242H38.0889L40.8387 33.7474L43.4437 27.5242Z" fill="#5980AE"/>
<path d="M52.4167 35.0501C50.9695 35.0501 49.667 34.7607 48.5092 34.1818L49.0881 32.8792C50.1011 33.4581 51.2589 33.7476 52.5615 33.7476C54.0087 33.7476 54.7324 33.3134 54.7324 32.3003C54.7324 31.8662 54.5876 31.5767 54.1534 31.432C53.7193 31.2873 53.1404 30.9978 52.272 30.8531C50.9695 30.5636 50.1011 30.2742 49.667 29.84C49.0881 29.4058 48.7986 28.8269 48.7986 27.9586C48.7986 27.0902 49.0881 26.5113 49.8117 26.0771C50.3906 25.643 51.2589 25.3535 52.4167 25.3535C53.5745 25.3535 54.7324 25.643 55.8902 26.0771L55.456 27.3797C54.5876 26.9455 53.5745 26.656 52.4167 26.656C51.8378 26.656 51.2589 26.8008 50.9695 26.9455C50.5353 27.0902 50.3906 27.5244 50.3906 27.8138C50.3906 28.248 50.5353 28.5375 50.9695 28.8269C51.2589 28.9716 51.9826 29.2611 52.8509 29.4058C54.1535 29.6953 55.0218 29.9847 55.6007 30.4189C56.1796 30.8531 56.4691 31.432 56.4691 32.1556C56.4691 33.1687 56.1796 33.8923 55.6007 34.3265C54.5876 34.7607 53.5745 35.0501 52.4167 35.0501Z" fill="#5980AE"/>
<path d="M63.9946 34.7604V22.6035H65.4419V33.4579H72.6782V34.7604H63.9946Z" fill="#5980AE"/>
<path d="M82.9538 26.6558L84.401 23.3271H85.2694L80.3487 34.7605H79.4804L74.5597 23.3271H75.428L76.8753 26.6558H82.9538ZM82.5196 27.5242H77.1647L79.9145 33.7474L82.5196 27.5242Z" fill="#5980AE"/>
<path d="M89.3217 33.6029H95.5449V34.7607H87.2955V33.8923L93.374 26.5113H87.585V25.3535H95.5449V26.0771L89.3217 33.6029Z" fill="#5980AE"/>
<path d="M106.11 26.6558L107.557 23.3271H108.426L103.505 34.7605H102.637L97.7159 23.3271H98.5843L100.032 26.6558H106.11ZM105.821 27.5242H100.466L103.216 33.7474L105.821 27.5242Z" fill="#5980AE"/>
<path d="M111.32 34.7599V25.3527H112.622V26.8C112.912 26.3658 113.346 25.9316 113.78 25.6422C114.359 25.3527 114.938 25.208 115.662 25.208C116.096 25.208 116.53 25.208 116.82 25.3527V26.8C116.385 26.6553 115.951 26.5105 115.517 26.5105C114.793 26.5105 114.07 26.8 113.491 27.5236C112.912 28.1025 112.767 28.9709 112.767 30.1287V34.7599H111.32Z" fill="#5980AE"/>
<path d="M128.108 30.1294V30.5636H120.004C120.148 31.5767 120.438 32.3003 121.161 32.8792C121.74 33.4581 122.609 33.7476 123.622 33.7476C124.924 33.7476 126.082 33.3134 126.806 32.3003L127.819 33.1687C126.95 34.4712 125.503 35.0501 123.477 35.0501C122.03 35.0501 120.727 34.6159 119.859 33.7476C118.99 32.8792 118.556 31.7214 118.556 30.1294C118.556 28.6822 118.99 27.5244 119.859 26.656C120.727 25.7877 121.885 25.3535 123.332 25.3535C124.924 25.3535 126.082 25.7877 126.95 26.656C127.674 27.5244 128.108 28.6822 128.108 30.1294ZM123.332 26.5113C122.464 26.5113 121.74 26.8008 121.161 27.2349C120.582 27.6691 120.148 28.3927 120.004 29.2611H126.661C126.516 28.3927 126.227 27.6691 125.648 27.2349C125.069 26.8008 124.345 26.5113 123.332 26.5113Z" fill="#5980AE"/>
<path d="M130.858 34.7601V25.3529H132.16V26.366C133.174 25.4977 134.187 25.0635 135.489 25.0635C136.647 25.0635 137.515 25.3529 138.239 25.9318C138.963 26.5107 139.252 27.5238 139.252 29.1158V34.6153H137.949V29.2605C137.949 28.1027 137.66 27.3791 137.226 26.9449C136.792 26.5107 136.068 26.366 135.344 26.366C134.187 26.366 133.174 26.8002 132.305 27.8133V34.7601H130.858Z" fill="#5980AE"/>
<path d="M149.672 34.7606L146.633 29.9847L143.883 32.7345V34.7606H142.581V21.7354H143.883V30.9978L149.238 25.3535H151.119L147.646 28.9716L151.264 34.7606H149.672Z" fill="#5980AE"/>
<path d="M161.829 33.6029C160.816 34.4712 159.658 34.9054 158.211 34.9054C156.764 34.9054 155.461 34.4712 154.448 33.6029C153.435 32.7345 153.001 31.5767 153.001 30.1295C153.001 28.6822 153.435 27.5244 154.448 26.656C155.461 25.7877 156.619 25.3535 158.211 25.3535C159.658 25.3535 160.961 25.7877 161.829 26.656C162.842 27.5244 163.276 28.6822 163.276 30.1295C163.276 31.5767 162.697 32.7345 161.829 33.6029ZM158.066 33.6029C159.079 33.6029 159.948 33.3134 160.671 32.5898C161.395 31.8662 161.684 30.9978 161.684 29.9847C161.684 28.9716 161.395 28.1033 160.671 27.3797C159.948 26.656 159.079 26.3666 158.066 26.3666C157.053 26.3666 156.04 26.656 155.461 27.3797C154.882 28.1033 154.448 28.8269 154.448 29.9847C154.448 30.9978 154.738 31.8662 155.461 32.5898C156.185 33.3134 157.053 33.6029 158.066 33.6029Z" fill="#5980AE"/>
</svg>
