<svg width="47" height="47" viewBox="0 0 47 47" fill="none" xmlns="http://www.w3.org/2000/svg">
<path d="M23.5 47C36.4787 47 47 36.4787 47 23.5C47 10.5213 36.4787 0 23.5 0C10.5213 0 0 10.5213 0 23.5C0 36.4787 10.5213 47 23.5 47Z" fill="#4D76A1"/>
<path fill-rule="evenodd" clip-rule="evenodd" d="M22.6123 33.8073H24.4568C24.4568 33.8073 25.0139 33.7461 25.2984 33.4395C25.5602 33.158 25.5518 32.6293 25.5518 32.6293C25.5518 32.6293 25.5158 30.1544 26.6644 29.7899C27.7968 29.4309 29.2508 32.1819 30.792 33.2396C31.9574 34.0402 32.8429 33.8647 32.8429 33.8647L36.9638 33.8073C36.9638 33.8073 39.1195 33.6745 38.0973 31.9796C38.0136 31.8409 37.5021 30.7258 35.0334 28.4343C32.4496 26.0361 32.7956 26.424 35.9081 22.2755C37.8037 19.7491 38.5615 18.2067 38.3248 17.546C38.099 16.9168 36.7049 17.0831 36.7049 17.0831L32.065 17.112C32.065 17.112 31.7211 17.0651 31.466 17.2176C31.2167 17.3672 31.0563 17.7157 31.0563 17.7157C31.0563 17.7157 30.3219 19.6707 29.3425 21.3334C27.2765 24.8418 26.4504 25.0269 26.1127 24.8091C25.3273 24.3014 25.5233 22.7694 25.5233 21.6811C25.5233 18.2812 26.039 16.8636 24.5192 16.4967C24.0148 16.3748 23.6437 16.2943 22.3539 16.2813C20.6983 16.2642 19.2971 16.2864 18.5037 16.6751C17.9758 16.9336 17.5687 17.5096 17.8167 17.5427C18.1233 17.5837 18.8178 17.7299 19.1861 18.2314C19.6615 18.8782 19.6448 20.3309 19.6448 20.3309C19.6448 20.3309 19.9179 24.3332 19.0068 24.8305C18.3813 25.1714 17.5234 24.4752 15.6815 21.2923C14.7377 19.6619 14.0251 17.8598 14.0251 17.8598C14.0251 17.8598 13.8877 17.523 13.6426 17.3429C13.3452 17.1246 12.9297 17.0551 12.9297 17.0551L8.52062 17.084C8.52062 17.084 7.85875 17.1024 7.61578 17.3902C7.39962 17.6462 7.5986 18.1757 7.5986 18.1757C7.5986 18.1757 11.0504 26.2514 14.9588 30.3211C18.5426 34.0523 22.6123 33.8073 22.6123 33.8073Z" fill="white"/>
</svg>
