<svg width="74" height="74" viewBox="0 0 74 74" fill="none" xmlns="http://www.w3.org/2000/svg">
<path d="M38.0117 18.4827C34.85 18.4828 31.748 19.3442 29.0388 20.9741C26.3295 22.6041 24.1154 24.9412 22.6341 27.7344C21.1527 30.5277 20.4602 33.6717 20.6307 36.8288C20.8012 39.986 21.8284 43.037 23.602 45.6545L21.901 52.2169L28.7403 50.6212C31.0237 52.0579 33.6098 52.9443 36.2944 53.2102C38.9791 53.4762 41.6888 53.1144 44.2097 52.1536C46.7306 51.1928 48.9936 49.6591 50.8202 47.6737C52.6467 45.6883 53.9868 43.3055 54.7346 40.7135C55.4823 38.1214 55.6173 35.391 55.129 32.7377C54.6406 30.0845 53.5421 27.5812 51.9204 25.4252C50.2986 23.2693 48.1979 21.5199 45.7841 20.315C43.3703 19.1102 40.7095 18.4829 38.0117 18.4827ZM46.5709 45.3923C44.1363 46.5341 39.0532 45.9384 33.6982 41.3556C28.3432 36.7728 26.9695 31.8425 27.7211 29.2609C28.4727 26.6793 31.4254 26.2024 31.9825 26.3256C32.5395 26.4489 35.3249 30.8648 34.9454 31.3799C34.5658 31.895 32.7324 33.7285 32.7324 33.7285C32.7324 33.7285 32.6553 35.6045 36.0977 38.5507C39.5402 41.4968 41.3818 41.1307 41.3818 41.1307C41.3818 41.1307 42.9101 39.035 43.3603 38.5813C43.8105 38.1276 48.6039 40.1973 48.8117 40.7286C49.0195 41.2599 49.0047 44.251 46.5702 45.3923H46.5709Z" fill="url(#paint0_linear_3_170)"/>
<path d="M37 0C16.5655 0 0 16.5655 0 37C0 57.4346 16.5655 74 37 74C57.4346 74 74 57.4346 74 37C74 16.5655 57.4346 0 37 0ZM38.0117 56.9382C34.5385 56.9433 31.1185 56.085 28.0593 54.4404L16.8668 57.2344L19.7018 46.2789C17.4173 42.2545 16.5225 37.5896 17.1558 33.0055C17.789 28.4215 19.9151 24.1739 23.205 20.9196C26.495 17.6653 30.7656 15.5857 35.3562 15.0024C39.9469 14.4192 44.6018 15.3648 48.6011 17.693C52.6003 20.0212 55.721 23.6022 57.4804 27.8822C59.2399 32.1623 59.5401 36.9028 58.3345 41.3706C57.129 45.8383 54.485 49.7844 50.8114 52.5985C47.1378 55.4125 42.6393 56.9378 38.0117 56.9382Z" fill="url(#paint1_linear_3_170)"/>
<defs>
<linearGradient id="paint0_linear_3_170" x1="1.98743" y1="71.9118" x2="72.3011" y2="1.59795" gradientUnits="userSpaceOnUse">
<stop stop-color="#209142"/>
<stop offset="1" stop-color="#56D263"/>
</linearGradient>
<linearGradient id="paint1_linear_3_170" x1="2.03789" y1="71.9621" x2="72.3516" y2="1.64838" gradientUnits="userSpaceOnUse">
<stop stop-color="#209142"/>
<stop offset="1" stop-color="#56D263"/>
</linearGradient>
</defs>
</svg>
