<svg width="65" height="68" viewBox="0 0 65 68" fill="none" xmlns="http://www.w3.org/2000/svg">
<g clip-path="url(#clip0_5_295)">
<path d="M34.4425 8.14368H12.0287" stroke="#597FAE" stroke-width="3"/>
<path d="M32.2012 0.672363L36.6839 8.14364L32.2012 15.6149" stroke="#597FAE" stroke-width="3"/>
<path d="M3.81036 21.8909H26.2242" stroke="#597FAE" stroke-width="3"/>
<path d="M6.05173 14.4196L1.56897 21.8908L6.05173 29.3621" stroke="#597FAE" stroke-width="3"/>
<path d="M47.5172 28.7643L63.6552 38.6264L58.7241 57.1551L52 63.0574L50.8793 67.316" stroke="black" stroke-width="3"/>
<path d="M52.2988 33.0977L50.3563 40.3448" stroke="black" stroke-width="3"/>
<path d="M57.8276 36.5344L55.8851 43.7068" stroke="black" stroke-width="3"/>
<path d="M44.8276 36.9827L49.4598 19.7988C49.9828 17.7816 48.7874 15.7643 46.8448 15.2413C44.8276 14.7183 42.8103 15.9137 42.2874 17.8563L37.0575 37.431C36.6092 39.2241 34.7414 40.2701 32.9483 39.8218L32.7241 39.7471L30.931 36.0115C29.9598 33.9942 27.4942 33.0977 25.477 34.0689L24.8046 34.3678C22.7874 35.339 21.8908 37.8046 22.8621 39.8218L31.3046 57.454L30.1839 61.7126" stroke="black" stroke-width="3"/>
</g>
<defs>
<clipPath id="clip0_5_295">
<rect width="65" height="67.9886" fill="white"/>
</clipPath>
</defs>
</svg>
