<svg width="18" height="27" viewBox="0 0 18 27" fill="none" xmlns="http://www.w3.org/2000/svg">
<g clip-path="url(#clip0_64_145)">
<path d="M15.3591 2.63475C13.6047 0.880301 11.4808 0 9 0C6.513 0 4.39535 0.880301 2.63475 2.63475C0.880301 4.39535 0 6.513 0 9C0 10.2743 0.190834 11.327 0.578659 12.1457L6.99316 25.7504C7.17168 26.1382 7.44254 26.4398 7.8119 26.6614C8.18126 26.883 8.57524 26.9939 9 26.9939C9.42476 26.9939 9.81874 26.883 10.1881 26.6614C10.5575 26.4398 10.8345 26.132 11.0253 25.7504L17.4213 12.1457C17.8092 11.327 18 10.2743 18 9C18 6.513 17.1197 4.39535 15.3591 2.63475ZM12.1826 12.1826C11.3023 13.0629 10.2435 13.5 9 13.5C7.7565 13.5 6.69767 13.0629 5.81737 12.1826C4.93707 11.3023 4.5 10.2435 4.5 9C4.5 7.7565 4.93707 6.69768 5.81737 5.81738C6.69767 4.93707 7.7565 4.5 9 4.5C10.2435 4.5 11.3023 4.93707 12.1826 5.81738C13.0629 6.69768 13.5 7.7565 13.5 9C13.5 10.2435 13.0568 11.3023 12.1826 12.1826Z" fill="#597FAE"/>
</g>
<defs>
<clipPath id="clip0_64_145">
<rect width="18" height="26.9939" fill="white"/>
</clipPath>
</defs>
</svg>
