<svg width="16" height="14" viewBox="0 0 16 14" fill="none" xmlns="http://www.w3.org/2000/svg">
<path d="M1.367 8.38373C1.1884 8.38469 1.01137 8.34885 0.846015 8.27824C0.680659 8.20764 0.530217 8.10365 0.403279 7.97223C0.276341 7.84081 0.175393 7.68452 0.106198 7.51228C0.037003 7.34005 0.000916891 7.15524 0 6.96842C0 6.19121 0.613 5.55521 1.367 5.55521H10.577L7.952 2.83653C7.8258 2.7058 7.72562 2.55021 7.65725 2.37874C7.58888 2.20727 7.55368 2.02333 7.55368 1.83755C7.55368 1.65176 7.58888 1.46782 7.65725 1.29635C7.72562 1.12489 7.8258 0.969295 7.952 0.838571C8.21021 0.57457 8.55694 0.426758 8.918 0.426758C9.27906 0.426758 9.62579 0.57457 9.884 0.838571L14.818 5.94643C14.9585 6.08508 15.0693 6.25337 15.143 6.44017C15.207 6.60335 15.243 6.78118 15.243 6.96842V6.97156C15.243 7.34814 15.101 7.70589 14.843 7.96949L9.883 13.1014C9.75617 13.2336 9.60565 13.3384 9.44006 13.4096C9.27446 13.4809 9.09706 13.5173 8.918 13.5167C8.55782 13.5184 8.21172 13.3705 7.95563 13.1056C7.69954 12.8406 7.55438 12.4802 7.552 12.1035C7.552 11.7269 7.693 11.3712 7.952 11.1014L10.58 8.38373H1.367Z" fill="#597FAE"/>
</svg>
