<svg width="85" height="53" viewBox="0 0 85 53" fill="none" xmlns="http://www.w3.org/2000/svg">
<path d="M81.7308 6.53846H3.26923C1.30769 6.53846 0 5.23077 0 3.26923C0 1.30769 1.30769 0 3.26923 0H81.7308C83.6923 0 85 1.30769 85 3.26923C85 5.23077 83.6923 6.53846 81.7308 6.53846Z" fill="#597FAE"/>
<path d="M81.7308 29.4231H3.26923C1.30769 29.4231 0 28.1154 0 26.1538C0 24.1923 1.30769 22.8846 3.26923 22.8846H81.7308C83.6923 22.8846 85 24.1923 85 26.1538C85 28.1154 83.6923 29.4231 81.7308 29.4231Z" fill="#597FAE"/>
<path d="M81.7308 52.3077H3.26923C1.30769 52.3077 0 51 0 49.0385C0 47.0769 1.30769 45.7692 3.26923 45.7692H81.7308C83.6923 45.7692 85 47.0769 85 49.0385C85 51 83.6923 52.3077 81.7308 52.3077Z" fill="#597FAE"/>
</svg>
