<?xml version="1.0" encoding="utf-8"?><svg viewBox="0 0 85 68" xmlns="http://www.w3.org/2000/svg" xmlns:xlink="http://www.w3.org/1999/xlink"><style>:root>svg{display:none}:root>svg:target{display:block}</style><svg fill="none" viewBox="0 0 12 21" id="before-after-arrow" xmlns="http://www.w3.org/2000/svg"><path d="M1.567 19.396l8.817-8.816-8.817-8.817" stroke="#597FAE" stroke-width="2" stroke-linecap="round" stroke-linejoin="round"/></svg><svg fill="none" viewBox="0 0 85 53" id="burger" xmlns="http://www.w3.org/2000/svg"><path d="M81.73 6.538H3.27C1.307 6.538 0 5.231 0 3.27 0 1.308 1.308 0 3.27 0h78.46C83.693 0 85 1.308 85 3.27c0 1.96-1.308 3.268-3.27 3.268zM81.73 29.423H3.27c-1.962 0-3.27-1.308-3.27-3.27 0-1.96 1.308-3.268 3.27-3.268h78.46c1.962 0 3.27 1.307 3.27 3.269 0 1.961-1.308 3.27-3.27 3.27zM81.73 52.308H3.27C1.307 52.308 0 51 0 49.038c0-1.961 1.308-3.269 3.27-3.269h78.46c1.962 0 3.27 1.308 3.27 3.27 0 1.961-1.308 3.269-3.27 3.269z" fill="#597FAE"/></svg><svg fill="none" viewBox="0 0 20 17" id="check" xmlns="http://www.w3.org/2000/svg"><path d="M18.815 1.384L17.592.38c-.596-.47-.973-.47-1.474.189L7.116 11.703 2.914 8.22c-.565-.47-.973-.439-1.412.126L.53 9.57c-.47.596-.44.972.157 1.443l5.959 4.955c.596.533.972.44 1.443-.094L19.003 2.89c.47-.628.47-1.004-.188-1.506z" fill="#597FAE"/></svg><svg fill="none" viewBox="0 0 65 68" id="horizontal-scroll" xmlns="http://www.w3.org/2000/svg"><g clip-path="url(#dclip0_5_295)" stroke-width="3"><path d="M34.443 8.144H12.029M32.201.672l4.483 7.472-4.483 7.47M3.81 21.89h22.414M6.052 14.42l-4.483 7.47 4.483 7.472" stroke="#597FAE"/><path d="M47.517 28.764l16.138 9.862-4.93 18.53L52 63.056l-1.12 4.259M52.299 33.098l-1.943 7.247M57.828 36.534l-1.943 7.173M44.828 36.983l4.632-17.184c.523-2.017-.673-4.035-2.615-4.558-2.017-.523-4.035.673-4.558 2.615l-5.23 19.575c-.448 1.793-2.316 2.84-4.109 2.39l-.224-.074-1.793-3.736c-.971-2.017-3.437-2.913-5.454-1.942l-.672.299c-2.018.971-2.914 3.437-1.943 5.454l8.443 17.632-1.121 4.259" stroke="#000"/></g><defs><clipPath id="dclip0_5_295"><path fill="#fff" d="M0 0h65v67.989H0z"/></clipPath></defs></svg><svg fill="none" viewBox="0 0 18 27" id="map-marker" xmlns="http://www.w3.org/2000/svg"><g clip-path="url(#eclip0_64_145)"><path d="M15.36 2.635C13.604.88 11.48 0 9 0 6.513 0 4.395.88 2.635 2.635.88 4.395 0 6.513 0 9c0 1.274.19 2.327.579 3.146L6.993 25.75c.179.388.45.69.819.911.37.222.763.333 1.188.333.425 0 .819-.111 1.188-.333.37-.221.646-.529.837-.91l6.396-13.605C17.81 11.327 18 10.274 18 9c0-2.487-.88-4.605-2.64-6.365zm-3.177 9.548c-.88.88-1.94 1.317-3.183 1.317-1.244 0-2.302-.437-3.183-1.317C4.937 11.303 4.5 10.243 4.5 9c0-1.244.437-2.302 1.317-3.183C6.697 4.937 7.757 4.5 9 4.5c1.243 0 2.302.437 3.183 1.317.88.88 1.317 1.94 1.317 3.183 0 1.243-.443 2.302-1.317 3.183z" fill="#597FAE"/></g><defs><clipPath id="eclip0_64_145"><path fill="#fff" d="M0 0h18v26.994H0z"/></clipPath></defs></svg><svg fill="none" viewBox="0 0 20 22" id="phone" xmlns="http://www.w3.org/2000/svg"><path d="M22.073 13.755c-1.467 0-2.91-.23-4.28-.68-.67-.23-1.495-.018-1.902.404l-2.7 2.039c-3.132-1.67-5.058-3.6-6.704-6.703l1.979-2.63c.515-.511.698-1.261.478-1.964a13.616 13.616 0 01-.685-4.285A1.926 1.926 0 006.333-1.99H1.927A1.913 1.913 0 000-.073C0 12.101 9.905 22 22.073 22A1.927 1.927 0 0024 20.075v-4.397c0-1.06-.863-1.922-1.927-1.922z" fill="#597FAE"/></svg><svg fill="none" viewBox="0 0 17 19" id="play-arrow" xmlns="http://www.w3.org/2000/svg"><path d="M15.282 7.648L3.814.556C2.758-.123 1.324.255.721 1.311c-.302.377-.377.754-.377 1.207V16.7c0 1.283.98 2.264 2.263 2.264.453 0 .83-.076 1.207-.302l11.468-7.092a2.305 2.305 0 00.754-3.093c-.226-.302-.453-.604-.754-.83z" fill="#fff"/></svg><svg fill="none" viewBox="0 0 22 26" id="play-arrow2" xmlns="http://www.w3.org/2000/svg"><path d="M19.8 10.4L4.6 1C3.2.1 1.3.6.5 2 .1 2.5 0 3 0 3.6v18.8c0 1.7 1.3 3 3 3 .6 0 1.1-.1 1.6-.4l15.2-9.4c1.4-.9 1.8-2.7 1-4.1-.3-.4-.6-.8-1-1.1z" fill="#597FAE"/></svg><svg fill="none" viewBox="0 0 16 14" id="remark-arrow" xmlns="http://www.w3.org/2000/svg"><path d="M1.367 8.384a1.308 1.308 0 01-.521-.106 1.357 1.357 0 01-.443-.306 1.428 1.428 0 01-.297-.46A1.48 1.48 0 010 6.968c0-.777.613-1.413 1.367-1.413h9.21L7.952 2.837a1.411 1.411 0 01-.295-.458 1.462 1.462 0 01.295-1.54c.258-.264.605-.412.966-.412s.708.148.966.412l4.934 5.107a1.431 1.431 0 01.425 1.022v.004c0 .376-.142.734-.4.997l-4.96 5.132a1.358 1.358 0 01-.443.309 1.33 1.33 0 01-1.484-.304 1.456 1.456 0 01-.404-1.002c0-.377.141-.733.4-1.003l2.628-2.717H1.367z" fill="#597FAE"/></svg><svg fill="none" viewBox="0 0 14 12" id="select-arrow" xmlns="http://www.w3.org/2000/svg"><path d="M12.411 2.605h0l-.005.007-4.862 7.607c-.099.123-.234.227-.43.369a1.115 1.115 0 01-1.44-.351L.803 2.614c-.093-.15-.131-.303-.131-.537 0-.561.435-1.005 1.056-1.005h9.751c.246 0 .383.037.524.146l.03.024.034.018c.482.267.642.895.344 1.344z" fill="#A8A8A8" stroke="#A8A8A8"/></svg><svg fill="none" viewBox="0 0 14 22" id="slider-arrow" xmlns="http://www.w3.org/2000/svg"><path d="M3.022 19.895l8.745-8.745L2.35 2.405" stroke="#fff" stroke-width="3.805" stroke-linecap="round" stroke-linejoin="round"/></svg><svg fill="none" viewBox="0 0 22 21" id="star" xmlns="http://www.w3.org/2000/svg"><path d="M11.414.516l3.269 6.627L22 8.205l-5.293 5.16 1.25 7.281-6.543-3.437-6.538 3.438 1.25-7.283L.833 8.205l7.312-1.062L11.414.516z" fill="#FAC917"/></svg><svg fill="none" viewBox="0 0 24 24" id="top-arrow" xmlns="http://www.w3.org/2000/svg"><path d="M24 12.104V.832A.838.838 0 0023.168 0H11.896a.838.838 0 00-.832.832c0 .455.39.845.845.845l9.283.013L.26 22.635c-.325.325-.364.819-.039 1.144.325.325.82.286 1.144-.039L22.297 2.808l.013 9.283c0 .234.104.442.247.598a.835.835 0 00.598.247.84.84 0 00.845-.832z" fill="#fff"/></svg></svg>