<svg width="24" height="24" viewBox="0 0 24 24" fill="none" xmlns="http://www.w3.org/2000/svg">
<path d="M24 12.104V0.832069C24 0.377031 23.6229 0 23.1679 0H11.896C11.4409 0 11.0639 0.377031 11.0639 0.832069C11.0639 1.28711 11.4539 1.67714 11.909 1.67714L21.1917 1.69014L0.259997 22.6349C-0.0650301 22.9599 -0.104033 23.4539 0.220994 23.779C0.546021 24.104 1.04006 24.065 1.36509 23.74L22.2968 2.80823L22.3098 12.091C22.3098 12.325 22.4138 12.533 22.5569 12.6891C22.7129 12.8451 22.9209 12.9361 23.1549 12.9361C23.6229 12.9361 24 12.559 24 12.104Z" fill="white"/>
</svg>
